<?xml version="1.0" encoding="UTF-8" standalone="no"?>
<svg
   xmlns:svg="http://www.w3.org/2000/svg"
   xmlns="http://www.w3.org/2000/svg"
   width="900.0"
   height="240.0"

>
    <g transform="scale(2.9277495270234923, -2.9277495270234923)   translate(24.5561700703095,-44.28949798414823)" stroke-width="0.5"  fill="none">
       <!-- hidden lines -->
       <g  stroke="rgb(160,160,160)" fill="none" stroke-dasharray="0.5,0.5" >

       </g>

       <!-- solid lines -->
       <g  stroke="rgb(32,36,42)" fill="none">
			<path d="M1.35889406799187,30.627126963823578 L1.5003453501366355,30.625206035201376 L1.640852088250024,30.619478711039584 L1.7803932842255845,30.60999818389543 L1.9189479399568663,30.596817646326144 L2.056495057337418,30.579990290888947 L2.1930136382607888,30.559569310141065 L2.328482684620528,30.535607896639725 L2.4628811983101837,30.508159242942153 L2.5961881812233054,30.477276541605576 L2.7283826352534426,30.44301298518722 L2.8594435622941434,30.405421766244313 L2.989349964238957,30.364556077334075 L3.1180808429814326,30.32046911101374 L3.24561520041512,30.273214059840527 L3.3719320384335667,30.222844116371668 L3.4970103589303223,30.169412473164385 L3.620829163798935,30.112972322775907 L3.7433674549329554,30.053576857763456 L3.864604234225932,29.991279270684263 L3.9845185035714126,29.92613275409555 L4.103089264862948,29.858190500554546 L4.220295488544103,29.787505706438445 L4.336106611624391,29.71413272607226 L4.450469183515656,29.63812869374922 L4.563326389566877,29.55955115236759 L4.674621415127036,29.47845764482564 L4.784297445545109,29.39490571402164 L4.89229766617008,29.30895290285386 L4.998565262350926,29.220656754220578 L5.103043419436627,29.13007481102005 L5.205675322776163,29.037264616150562 L5.306404157718516,28.94228371251037 L5.4051731096126625,28.845189642997752 L5.501925363807583,28.746039950510976 L5.596604105652259,28.644892177948314 L5.689152520495668,28.54180386820803 L5.7795137936867915,28.4368325641884 L5.8676311105746075,28.330035808787695 L5.953447656508098,28.22147114490418 L6.036906616836242,28.11119611543613 L6.117951176908017,27.99926826328181 L6.196524522072407,27.88574513133949 L6.272569837678388,27.770684262507448 L6.346030309074941,27.654143199683947 L6.416849121611046,27.53617948576726 L6.484969460635682,27.416850663655655 L6.55033451149783,27.296214276247404 L6.612887627549848,27.174327846034785 L6.6726037052202685,27.051245064232095 L6.729526115191919,26.927011305049213 L6.783707205302704,26.80167085231485 L6.835199323390527,26.67526798985771 L6.884054817293286,26.547847001506494 L6.930326034848886,26.419452171089908 L6.974065323895229,26.29012778243666 L7.015325032270216,26.159918119375455 L7.054157507811749,26.028867465734997 L7.0906150983577305,25.89702010534399 L7.1247501517460625,25.764420322031143 L7.156615015814647,25.63111239962516 L7.186262038401386,25.49714062195474 L7.213743567344181,25.362549272848593 L7.239111950480936,25.227382636135427 L7.262419535649551,25.091684995643938 L7.303061703433971,24.81887383864084 L7.336088853400659,24.54447007246893 L7.361919768252829,24.268827967757858 L7.3809732306937,23.99230179513726 L7.393668023426487,23.71524582523677 L7.4004229291544075,23.438014328686048 L7.401656730580677,23.160961576114715 L7.3977891207604936,22.884437011409542 L7.389271651359563,22.608621162120947 L7.376595325142885,22.33348538361479 L7.360253595507843,22.058988037851464 L7.340739915851823,21.78508748679135 L7.318547739572207,21.51174209239485 L7.294170520066379,21.238910216622347 L7.240834764965623,20.694620468790895 L7.129654685534459,19.610371122873133 L7.079705615562193,19.069745316153067 L7.057868409902732,18.799661396214102 L7.038780694990898,18.529674614503037 L7.0229359242240745,18.25974333298026 L7.010827550999646,17.98982591360616 L7.002949028714995,17.71988071834113 L6.999793077992723,17.449866174451664 L7.001664458682147,17.1797574605792 L7.008431290558091,16.909568669450724 L7.019899839659647,16.639319406300437 L7.035876372025908,16.369029276362532 L7.056167153695965,16.098717884871217 L7.080578450708911,15.828404837060688 L7.108916529103839,15.558109738165147 L7.14098765491984,15.28785219341879 L7.176598094196008,15.01765180805582 L7.215554112971433,14.747528187310436 L7.25766197728521,14.477500936416837 L7.302727953176429,14.207589660609226 L7.350558306684183,13.9378139651218 L7.400959303847566,13.668193455188757 L7.453737210705668,13.398747736044303 L7.5086982932975825,13.129496412922634 L7.624395049839219,12.591655375684448 L7.746499701785211,12.054827185347804 L7.873462377448299,11.519168683786301 L8.003733209131592,10.984836711487002 L8.269451414673062,9.920275348710591 L8.806141501182061,7.802244858711807 L9.069012619132346,6.74548343548604 L9.197307654871414,6.216945989565818 L9.322833944868327,5.688029696107088 L9.445085191434508,5.158528786609641 L9.563555096881379,4.628237492573259 L9.677737363520363,4.096950045497732 L9.787125693662881,3.5644606768828524 L9.891274484309212,3.030596299522643 L9.990088105435676,2.4953722705383212 L10.083596099641188,1.9588713467427123 L10.171828167328453,1.4211763699186903 L10.254814008900173,0.8823701818491299 L10.332583324759048,0.3425356243169251 L10.405165815307784,-0.19824446089504866 L10.472591180949086,-0.7398872320039183 L10.534889122085653,-1.2823098472267946 L10.59208933912019,-1.8254294647807918 L10.644221532455395,-2.369163242883032 L10.691315402493977,-2.9134283397506446 L10.733400649638638,-3.4581419136007328 L10.770506974292076,-4.003221122650423 L10.802664070660718,-4.548583128613847 L10.829890329990596,-5.094151472279041 L10.852169463965367,-5.639869266606694 L10.86947855540911,-6.18568336569998 L10.881794687145897,-6.731540623662049 L10.889094941999806,-7.277387894596073 L10.891356402794914,-7.823172032605228 L10.888556152355294,-8.368839891792662 L10.880671273505026,-8.91433832626155 L10.867678849068184,-9.459614190115067 L10.849555961868845,-10.004614337456367 L10.826279694731085,-10.54928562238861 L10.797827130478979,-11.09357489901497 L10.764175351936604,-11.637429021438617 L10.725301441928035,-12.180794843762706 L10.681183414107856,-12.723620078185526 L10.631833012891963,-13.265883531934373 L10.577304430395706,-13.807603143059369 L10.517654561879407,-14.348799341531032 L10.452940302603384,-14.889492557319883 L10.383218547827962,-15.429703220396421 L10.308546192813463,-15.969451760731163 L10.228980132820206,-16.508758608294627 L10.144577263108518,-17.047644193057316 L10.055394478938716,-17.586128944989746 L9.961488675571125,-18.12423329406243 L9.862916748266064,-18.661977670245886 L9.75973559228386,-19.19938250351061 L9.65198177896961,-19.73645793350666 L9.539061936563128,-20.272895149703718 L9.419646571632345,-20.8080126314996 L9.35707456362396,-21.074856895514046 L9.292364469468845,-21.34110773414854 L9.225344887328447,-21.606677316809854 L9.155844415364214,-21.87147781290477 L9.083691651737597,-22.135421391840072 L9.008715194610044,-22.39842022302252 L8.930743642143002,-22.660386475858907 L8.849605592497918,-22.92123231975602 L8.765129643836243,-23.180869924120625 L8.677144394319424,-23.439211458359505 L8.58547844210891,-23.696169091879437 L8.489960385366151,-23.951654994087193 L8.390418822252594,-24.205581334389564 L8.286682350929686,-24.457860282193327 L8.178579569558876,-24.70840400690526 L8.065939076301612,-24.957124677932136 L7.948589469319344,-25.203934464680742 L7.826359346773523,-25.448745536557844 L7.699089109182047,-25.691455936700482 L7.566709367391076,-25.9318557352798 L7.429192362492789,-26.1696851751221 L7.28651055902569,-26.404684231610222 L7.138636421528281,-26.63659288012701 L6.985542414539063,-26.865151096055317 L6.82720100259654,-27.09009885477798 L6.66358465023922,-27.31117613167784 L6.494665822005599,-27.528122902137746 L6.320416982434177,-27.74067914154055 L6.140810596063461,-27.94858482526909 L5.955819127431952,-28.151579928706216 L5.765415041078164,-28.349404427234752 L5.5695708015405785,-28.541798296237573 L5.368258873357709,-28.72850151109751 L5.265543921192575,-28.819637865531035 L5.161451721068058,-28.909254047197408 L5.055978831051471,-28.997317553019478 L4.949121809210128,-29.083795879920107 L4.84087721361134,-29.168656524822147 L4.731243060207663,-29.251866869264514 L4.620237106865087,-29.33339273231755 L4.507891314082746,-29.413198808987918 L4.394237954588194,-29.491249769571056 L4.279309301108981,-29.567510284362395 L4.1631376263726585,-29.64194502365737 L4.04575520310678,-29.714518657751412 L3.9271943040388964,-29.78519585693995 L3.807487201896559,-29.853941291518417 L3.68666616940732,-29.920719631782248 L3.5647634792987315,-29.985495548026872 L3.441811404298345,-30.048233710547727 L3.317842217133725,-30.108898789640232 L3.1928881905324107,-30.16745545559983 L3.0669815972219405,-30.223868378721956 L2.94015470992988,-30.27810222930204 L2.81243980138378,-30.33012167763551 L2.683869144311192,-30.379891394017804 L2.554475011439669,-30.42737604874435 L2.4242896754967616,-30.472540312110578 L2.2933454092100223,-30.515348854411922 L2.1616744853070027,-30.55576634594382 L2.0293091765152544,-30.593757457001693 L1.8962817555623288,-30.629286857880984 L1.7626244951757792,-30.662319218877123 L1.6283696680831556,-30.692819210285535 L1.4935495470120106,-30.720751502401658 L1.3581964046898962,-30.746080765520926 L1.2223425138443629,-30.76877166993877 L1.086020147202964,-30.788788885950616 L0.9492616856215749,-30.806097569031703 L0.8121045454208144,-30.82068546916057 L0.6745932108447461,-30.832572050611795 L0.5367726954634975,-30.841779152785236 L0.39868801284719635,-30.84832861508074 L0.26038417656597024,-30.85224227689815 L0.1219062001901059,-30.85354197763732 " />
			<path d="M0.1971999990139998,30.499999999999996 L0.34490778565209557,30.530225200728538 L0.49184397416427983,30.55624961683469 L0.6379877881829207,30.578125879165277 L0.7833184513403868,30.595906618567128 L0.9278151872690463,30.609644465887058 L1.071457219601268,30.619392051971897 L1.2142237719694196,30.625202007668463 L1.356094068005868,30.627126963823578 " />
			<path d="M1.35609406800587,30.627126963823578 L1.4975453501506353,30.625206035201376 L1.638052088264024,30.619478711039584 L1.7775932842395845,30.60999818389543 L1.916147939970866,30.596817646326144 L2.053695057351418,30.579990290888947 L2.1902136382747885,30.559569310141065 L2.3256826846345278,30.535607896639725 L2.4600811983241835,30.508159242942153 L2.593388181237305,30.477276541605576 L2.7255826352674424,30.44301298518722 L2.856643562308143,30.405421766244313 L2.9865499642529567,30.364556077334075 L3.115280842995432,30.32046911101374 L3.242815200429119,30.273214059840527 L3.369132038447566,30.222844116371668 L3.4942103589443216,30.169412473164385 L3.6180291638129347,30.112972322775907 L3.740567454946955,30.053576857763456 L3.8618042342399312,29.991279270684263 L3.981718503585412,29.92613275409555 L4.100289264876947,29.858190500554546 L4.217495488558103,29.787505706438445 L4.333306611638391,29.71413272607226 L4.447669183529656,29.63812869374922 L4.560526389580877,29.55955115236759 L4.671821415141036,29.47845764482564 L4.781497445559109,29.39490571402164 L4.889497666184079,29.30895290285386 L4.995765262364925,29.220656754220578 L5.100243419450626,29.13007481102005 L5.202875322790163,29.037264616150562 L5.303604157732515,28.94228371251037 L5.402373109626662,28.845189642997752 L5.499125363821583,28.746039950510976 L5.593804105666258,28.644892177948314 L5.686352520509667,28.54180386820803 L5.77671379370079,28.4368325641884 L5.864831110588607,28.330035808787695 L5.950647656522097,28.22147114490418 L6.034106616850241,28.11119611543613 L6.115151176922017,27.99926826328181 L6.193724522086406,27.88574513133949 L6.269769837692387,27.770684262507448 L6.3432303090889395,27.654143199683947 L6.414049121625045,27.53617948576726 L6.482169460649681,27.416850663655655 L6.547534511511829,27.296214276247404 L6.610087627563848,27.174327846034785 L6.669803705234268,27.051245064232095 L6.726726115205919,26.927011305049213 L6.780907205316704,26.80167085231485 L6.832399323404527,26.67526798985771 L6.881254817307286,26.547847001506494 L6.927526034862886,26.419452171089908 L6.971265323909229,26.29012778243666 L7.012525032284215,26.159918119375455 L7.051357507825749,26.028867465734997 L7.08781509837173,25.89702010534399 L7.121950151760062,25.764420322031143 L7.153815015828647,25.63111239962516 L7.183462038415386,25.49714062195474 L7.210943567358181,25.362549272848593 L7.236311950494935,25.227382636135427 L7.259619535663551,25.091684995643938 L7.300261703447971,24.81887383864084 L7.3332888534146585,24.54447007246893 L7.359119768266829,24.268827967757858 L7.3781732307076995,23.99230179513726 L7.390868023440487,23.71524582523677 L7.397622929168407,23.438014328686048 L7.398856730594677,23.160961576114715 L7.394989120774493,22.884437011409542 L7.386471651373562,22.608621162120947 L7.373795325156885,22.33348538361479 L7.357453595521843,22.058988037851464 L7.337939915865823,21.78508748679135 L7.3157477395862065,21.51174209239485 L7.2913705200803784,21.238910216622347 L7.238034764979623,20.694620468790895 L7.126854685548459,19.610371122873133 L7.076905615576193,19.069745316153067 L7.055068409916732,18.799661396214102 L7.035980695004898,18.529674614503037 L7.020135924238074,18.25974333298026 L7.008027551013646,17.98982591360616 L7.000149028728995,17.71988071834113 L6.996993078006723,17.449866174451664 L6.998864458696147,17.1797574605792 L7.005631290572091,16.909568669450724 L7.017099839673647,16.639319406300437 L7.033076372039908,16.369029276362532 L7.0533671537099645,16.098717884871217 L7.077778450722911,15.828404837060688 L7.1061165291178385,15.558109738165147 L7.13818765493384,15.28785219341879 L7.1737980942100075,15.01765180805582 L7.212754112985433,14.747528187310436 L7.25486197729921,14.477500936416837 L7.299927953190429,14.207589660609226 L7.347758306698184,13.9378139651218 L7.398159303861567,13.668193455188757 L7.450937210719669,13.398747736044303 L7.505898293311583,13.129496412922634 L7.621595049853219,12.591655375684448 L7.743699701799212,12.054827185347804 L7.8706623774623,11.519168683786301 L8.000933209145591,10.984836711487002 L8.266651414687061,9.920275348710591 L8.803341501196062,7.802244858711807 L9.066212619146347,6.74548343548604 L9.194507654885413,6.216945989565818 L9.320033944882328,5.688029696107088 L9.442285191448507,5.158528786609641 L9.56075509689538,4.628237492573259 L9.674937363534362,4.096950045497732 L9.78432569367688,3.5644606768828524 L9.888474484323213,3.030596299522643 L9.987288105449677,2.4953722705383212 L10.080796099655188,1.9588713467427123 L10.169028167342454,1.4211763699186903 L10.252014008914173,0.8823701818491299 L10.329783324773048,0.3425356243169251 L10.402365815321785,-0.19824446089504866 L10.469791180963087,-0.7398872320039183 L10.532089122099654,-1.2823098472267946 L10.58928933913419,-1.8254294647807918 L10.641421532469396,-2.369163242883032 L10.688515402507978,-2.9134283397506446 L10.730600649652638,-3.4581419136007328 L10.767706974306076,-4.003221122650423 L10.799864070674719,-4.548583128613847 L10.827090330004596,-5.094151472279041 L10.849369463979368,-5.639869266606694 L10.86667855542311,-6.18568336569998 L10.878994687159897,-6.731540623662049 L10.886294942013807,-7.277387894596073 L10.888556402808915,-7.823172032605228 L10.885756152369295,-8.368839891792662 L10.877871273519027,-8.91433832626155 L10.864878849082185,-9.459614190115067 L10.846755961882845,-10.004614337456367 L10.823479694745085,-10.54928562238861 L10.79502713049298,-11.09357489901497 L10.761375351950605,-11.637429021438617 L10.722501441942036,-12.180794843762706 L10.678383414121857,-12.723620078185526 L10.629033012905964,-13.265883531934373 L10.574504430409707,-13.807603143059369 L10.514854561893408,-14.348799341531032 L10.450140302617385,-14.889492557319883 L10.380418547841963,-15.429703220396421 L10.305746192827463,-15.969451760731163 L10.226180132834207,-16.508758608294627 L10.141777263122519,-17.047644193057316 L10.052594478952717,-17.586128944989746 L9.958688675585126,-18.12423329406243 L9.860116748280065,-18.661977670245886 L9.756935592297861,-19.19938250351061 L9.64918177898361,-19.73645793350666 L9.536261936577128,-20.272895149703718 L9.416846571646346,-20.8080126314996 L9.354274563637961,-21.074856895514046 L9.289564469482846,-21.34110773414854 L9.222544887342448,-21.606677316809854 L9.153044415378215,-21.87147781290477 L9.080891651751598,-22.135421391840072 L9.005915194624045,-22.39842022302252 L8.927943642157002,-22.660386475858907 L8.846805592511918,-22.92123231975602 L8.762329643850244,-23.180869924120625 L8.674344394333424,-23.439211458359505 L8.58267844212291,-23.696169091879437 L8.487160385380152,-23.951654994087193 L8.387618822266594,-24.205581334389564 L8.283882350943685,-24.457860282193327 L8.175779569572876,-24.70840400690526 L8.063139076315613,-24.957124677932136 L7.945789469333345,-25.203934464680742 L7.8235593467875235,-25.448745536557844 L7.696289109196047,-25.691455936700482 L7.563909367405076,-25.9318557352798 L7.426392362506789,-26.1696851751221 L7.283710559039689,-26.404684231610222 L7.13583642154228,-26.63659288012701 L6.982742414553062,-26.865151096055317 L6.82440100261054,-27.09009885477798 L6.66078465025322,-27.31117613167784 L6.491865822019599,-27.528122902137746 L6.317616982448177,-27.74067914154055 L6.138010596077461,-27.94858482526909 L5.953019127445952,-28.151579928706216 L5.762615041092163,-28.349404427234752 L5.566770801554577,-28.541798296237573 L5.365458873371709,-28.72850151109751 L5.2627439212065745,-28.819637865531035 L5.158651721082057,-28.909254047197408 L5.0531788310654715,-28.997317553019478 L4.946321809224127,-29.083795879920107 L4.83807721362534,-29.168656524822147 L4.728443060221664,-29.251866869264514 L4.617437106879088,-29.33339273231755 L4.505091314096747,-29.413198808987918 L4.391437954602194,-29.491249769571056 L4.276509301122981,-29.567510284362395 L4.160337626386659,-29.64194502365737 L4.042955203120781,-29.714518657751412 L3.9243943040528966,-29.78519585693995 L3.8046872019105598,-29.853941291518417 L3.6838661694213206,-29.920719631782248 L3.561963479312732,-29.985495548026872 L3.439011404312345,-30.048233710547727 L3.3150422171477256,-30.108898789640232 L3.1900881905464114,-30.16745545559983 L3.064181597235941,-30.223868378721956 L2.9373547099438806,-30.27810222930204 L2.8096398013977804,-30.33012167763551 L2.6810691443251926,-30.379891394017804 L2.551675011453669,-30.42737604874435 L2.421489675510762,-30.472540312110578 L2.2905454092240225,-30.515348854411922 L2.1588744853210033,-30.55576634594382 L2.0265091765292547,-30.593757457001693 L1.8934817555763295,-30.629286857880984 L1.7598244951897795,-30.662319218877123 L1.6255696680971563,-30.692819210285535 L1.4907495470260113,-30.720751502401658 L1.3553964047038964,-30.746080765520926 L1.219542513858363,-30.76877166993877 L1.0832201472169647,-30.788788885950616 L0.9464616856355746,-30.806097569031703 L0.8093045454348142,-30.82068546916057 L0.6717932108587459,-30.832572050611795 L0.5339726954774973,-30.841779152785236 L0.3958880128611961,-30.84832861508074 L0.25758417657997,-30.85224227689815 L0.11910620020410567,-30.85354197763732 " />
			<path d="M0.11910620020396116,-30.85354197763732 L-0.022756165455637647,-30.852188249588476 L-0.16470553288120554,-30.84814267475093 L-0.3066936431419198,-30.841428667088163 L-0.4486722373069146,-30.83206964056366 L-0.5905930564453383,-30.820089009140897 L-0.7324078416263392,-30.805510186783362 L-0.8740683339190657,-30.78835658745453 L-1.0155262743926665,-30.768651625117887 L-1.15673340411629,-30.746418713736908 L-1.2976414641590845,-30.721681267275084 L-1.438202195590184,-30.69446269969589 L-1.5783673394787658,-30.66478642496281 L-1.718088636893964,-30.63267585703932 L-1.8573178289049128,-30.598154409888913 L-1.996006656580789,-30.561245497475056 L-2.1341068609907268,-30.52197253376124 L-2.271570183203875,-30.480358932710946 L-2.408348364289381,-30.43642810828765 L-2.5443931453163806,-30.39020347445484 L-2.67965626735405,-30.341708445175993 L-2.8140894714715228,-30.29096643441459 L-2.947644498737934,-30.238000856134118 L-3.0802730902224607,-30.182835124298048 L-3.2119269869942357,-30.12549265286987 L-3.342557930122408,-30.06599685581306 L-3.4721176606761266,-30.00437114709111 L-3.600557919724527,-29.940638940667494 L-3.727830448336783,-29.87482365050569 L-3.8538869875820305,-29.80694869056918 L-3.9786792785294045,-29.737037474821456 L-4.102159062248081,-29.665113417225985 L-4.224278079807193,-29.591199931746257 L-4.34498807227589,-29.51532043234575 L-4.464240780723321,-29.437498332987946 L-4.5819879462186215,-29.357757047636337 L-4.698181309830966,-29.276119990254386 L-4.812772619207528,-29.192610576529525 L-4.925726185773084,-29.10725551481004 L-5.037045035858378,-29.020091659680375 L-5.146739629137162,-28.9311578138236 L-5.254820425283202,-28.840492779922787 L-5.3612978839702645,-28.748135360661 L-5.466182464872115,-28.654124358721308 L-5.569484627662519,-28.558498576786775 L-5.671214832015243,-28.461296817540465 L-5.771383537604052,-28.362557883665453 L-5.870001204102701,-28.262320577844807 L-5.967078291184977,-28.160623702761576 L-6.062625258524636,-28.057506061098838 L-6.156652565795433,-27.953006455539672 L-6.340190038825554,-27.74001656346426 L-6.517774387665456,-27.52196444799988 L-6.689489289705265,-27.299160530611072 L-6.855418422335108,-27.07191523276236 L-7.015645462945101,-26.840538975918292 L-7.170254088925381,-26.605342181543392 L-7.319327977666077,-26.366635271102176 L-7.462950806557313,-26.124728666059188 L-7.601206252989202,-25.879932787878975 L-7.734177994351882,-25.632558058026053 L-7.8619512522344825,-25.382911108091328 L-7.984652739112334,-25.13119674003401 L-8.10245427670073,-24.877509045782507 L-8.215529956171087,-24.62193654741839 L-8.324053868694827,-24.36456776702322 L-8.428200105443356,-24.105491226678595 L-8.528142757588078,-23.84479544846611 L-8.624055916300415,-23.58256895446733 L-8.716113672751785,-23.31890026676382 L-8.804490118113591,-23.053877907437176 L-8.889359343557249,-22.787590398568977 L-8.970895440254171,-22.520126262240808 L-9.049272499375764,-22.251574020534253 L-9.124664612093449,-21.982022195530888 L-9.197245869578639,-21.711559309312275 L-9.267190363002744,-21.44027388396001 L-9.334672183537176,-21.168254441555675 L-9.399865422353349,-20.895589504180847 L-9.46294417062267,-20.62236759391712 L-9.583454560206427,-20.074606943049236 L-9.697596081659745,-19.52568066560467 L-9.806554103119085,-18.976192969224535 L-9.910559487377727,-18.42626948137024 L-10.009568630864795,-17.875898214598468 L-10.103537905544687,-17.325067169199496 L-10.192423683381797,-16.77376434546362 L-10.276182336340526,-16.221977743681098 L-10.35477023638526,-15.669695364142251 L-10.428143755480399,-15.116905207137348 L-10.496259265590341,-14.563595272956661 L-10.559073138679477,-14.009753561890502 L-10.616541746712203,-13.455368074229142 L-10.668621461652915,-12.900426810262868 L-10.715268888321143,-12.344918014650018 L-10.756462120293834,-11.788852483263334 L-10.792217799994587,-11.232281466771873 L-10.822556584453357,-10.675260428943057 L-10.847499130700099,-10.117844833544305 L-10.867066095764766,-9.560090144343027 L-10.881278136677317,-9.00205182510667 L-10.890155910467705,-8.443785339602645 L-10.893720074165886,-7.885346151598358 L-10.891991284801815,-7.326789724861257 L-10.884990199405449,-6.768171523158751 L-10.87273747500674,-6.209547010258261 L-10.855253768635645,-5.6509716499272065 L-10.832559737322121,-5.092500905933013 L-10.80467603809612,-4.534190242043099 L-10.771616228401042,-3.9760994143749775 L-10.733359725327865,-3.4183088200149667 L-10.68987569646141,-2.860905052814262 L-10.641133307414488,-2.303974707816357 L-10.587101723799918,-1.7476043800647005 L-10.527750111230509,-1.191880664602745 L-10.463047635319079,-0.6368901564739824 L-10.392963461678441,-0.08271945072186426 L-10.31746675592141,0.47054485761014764 L-10.236526683660799,1.0228161734785859 L-10.150112410509422,1.5740079018399857 L-10.058193102080095,2.1240334476508824 L-9.960737923985631,2.6728062158678156 L-9.857716041838845,3.2202396114473144 L-9.749107726579402,3.7662527745415053 L-9.635163711157954,4.310904521743159 L-9.516413819442654,4.854397802367635 L-9.393400706943433,5.3969421924578205 L-9.266667029170232,5.938747268056558 L-9.136755441632985,6.480022605206731 L-9.00420859984163,7.020977779951212 L-8.869569159306103,7.561822368332873 L-8.596183104042275,8.644018090179216 L-8.320938519920993,9.728286379088733 L-8.048176651021743,10.8163038434044 L-7.914137748251236,11.362226637321234 L-7.783096304975716,11.90949760215851 L-7.656706172074317,12.458003036032755 L-7.536628319596569,13.007627165894021 L-7.479475551657041,13.28282256274168 L-7.4245237175920025,13.558254218692344 L-7.371980438657642,13.833907662114779 L-7.322053336110151,14.109768421377758 L-7.27495003120572,14.385822024850018 L-7.2308781452005455,14.6620540009003 L-7.190045299350815,14.938449877897373 L-7.152659114912718,15.214995184210007 L-7.11892721314245,15.491675448206939 L-7.089057215296203,15.768476198256913 L-7.063256742630165,16.045382962728695 L-7.041733416400529,16.322381269991055 L-7.024694857863487,16.599456648412733 L-7.01234868827523,16.876594626362483 L-7.004902528891951,17.15378073220906 L-7.00256400096984,17.431000494321207 L-7.005488730462227,17.7082413639265 L-7.013381470450059,17.985507466160115 L-7.025715532161294,18.262811485199677 L-7.041962335159856,18.540166175179206 L-7.061593299009676,18.81758429023272 L-7.084079843274679,19.09507858449422 L-7.135505351305953,19.65034672717732 L-7.249365793163546,20.762358344936327 L-7.303343440012709,21.319305886156506 L-7.327744088391132,21.59805972932084 L-7.3497145128240176,21.87701729303336 L-7.368726132875295,22.156191331428076 L-7.3842503681088925,22.435594598639003 L-7.3957586380887355,22.715239848800138 L-7.402722362378754,22.99513983604555 L-7.404625157510648,23.275272746736285 L-7.401002035881647,23.555471104750477 L-7.391401545332996,23.835529072779824 L-7.375372233773145,24.115240813325496 L-7.352462649110543,24.39440048888868 L-7.322221339253639,24.672802261970567 L-7.304210208598716,24.811654610862632 L-7.284196852110883,24.950240295072348 L-7.262124838278698,25.088533584912334 L-7.237937735590723,25.22650875069521 L-7.21157911253551,25.364140062733657 L-7.182992537601608,25.50140179134035 L-7.152121579277581,25.63826820682791 L-7.118909806051989,25.774713579508955 L-7.083300786413384,25.910712179696166 L-7.045238088850321,26.04623827770219 L-7.0046652818513575,26.181266143839675 L-6.9615259339050395,26.3157700484213 L-6.915763613499932,26.44972426175968 L-6.8673218891246,26.583103054167445 L-6.816144329267591,26.715880695957267 L-6.762174502417463,26.848031457441795 L-6.70535597706277,26.979529608933678 L-6.645632321692057,27.11034942074559 L-6.582947704251894,27.240464430983213 L-6.517288605988704,27.36979649424542 L-6.44871102889211,27.49818254913973 L-6.377277440044833,27.625451637496894 L-6.303050306529622,27.751432801147615 L-6.226092095429228,27.875955081922587 L-6.146465273826372,27.998847521652564 L-6.064232308803772,28.119939162168297 L-5.979455667444181,28.239059045300486 L-5.892197816830353,28.356036212879832 L-5.802521224045005,28.470699706737086 L-5.710488356170854,28.582878568702995 L-5.616161680290654,28.692401840608262 L-5.51960366348716,28.799098564283586 L-5.420876772843089,28.90279778155972 L-5.320043475441177,29.00332853426739 L-5.217166238364159,29.10051986423732 L-5.11230752869475,29.194200813300252 L-5.005529813515704,29.284200423286894 L-4.896895559909781,29.370347736027952 L-4.786467234959696,29.45247179335417 L-4.674307305748182,29.530401637096276 L-4.560478239357976,29.603966309084996 L-4.44504250287179,29.672994851151067 L-4.328062563372383,29.737316305125198 L-4.209600887942513,29.796759712838103 L-4.089714606482025,29.85121584680717 L-3.968435507319091,29.90086858410653 L-3.8457878652544295,29.945988704437276 L-3.7217959539071663,29.986847001166993 L-3.5964840468963777,30.023714267663276 L-3.469876417841164,30.056861297293725 L-3.3419973403606265,30.086558883425923 L-3.2128710880738387,30.113077819427463 L-3.082521934599928,30.136688898665934 L-2.950974153558021,30.15766291450892 L-2.8182520185671933,30.176270660324015 L-2.6843798032465447,30.19278292947881 L-2.413282226092159,30.22060421127786 L-2.1378756110476984,30.24329310684678 L-1.5749120230997709,30.281939127057132 L-1.2877434281019449,30.302228945579998 L-0.9970425510252356,30.326051765635615 L-0.7030035808224779,30.355573934164706 L-0.5547929948465984,30.373149257525778 L-0.40582070644650825,30.392961798107986 L-0.25611098924130893,30.41528234927892 L-0.10568811685007073,30.440381704406178 L0.045423637108076065,30.468530656857343 L0.197199999013689,30.499999999999932 " />
			<path d="M1.3588940679918697,30.62712696382358 L1.3560940680058697,30.62712696382358 " />
			<path d="M0.12190620018996078,-30.853541977637317 L0.11910620020396079,-30.853541977637317 " />

       </g>
    </g>
    
</svg>
